<svg width="74" height="15" viewBox="0 0 74 15" fill="none" xmlns="http://www.w3.org/2000/svg">
<path fill-rule="evenodd" clip-rule="evenodd" d="M10.2712 4.05375C11.4312 2.485 12.7137 1.25 14.3538 1.25C17.45 1.25 20 5.19125 20.0012 9.88375C20.0012 12.7462 18.7688 14.54 16.555 14.54C14.6263 14.54 13.5612 13.4575 11.65 10.26L10.8162 8.85625L10.6687 8.61C10.4513 8.24253 10.2305 7.8771 10.0063 7.51375L8.53375 10.1137C6.4425 13.77 5.265 14.54 3.63 14.54C1.3575 14.54 0 12.7712 0 9.96625C0 5.485 2.49375 1.25 5.7475 1.25C6.14625 1.25 6.52875 1.29875 6.9025 1.4025C7.29 1.51 7.66625 1.6775 8.04375 1.91125C8.765 2.36 9.48625 3.055 10.2712 4.05375ZM12.1663 6.83375C11.8512 6.32125 11.5487 5.85 11.2575 5.4175L11.25 5.4075C12.3062 3.77625 13.1788 2.965 14.215 2.965C16.3687 2.965 18.0925 6.13625 18.0925 10.0312C18.0925 11.5162 17.605 12.3775 16.5988 12.3775C15.6325 12.3775 15.1712 11.74 13.3362 8.79L12.165 6.83375H12.1663ZM6.0575 3.445C6.96375 3.57 7.78875 4.2375 8.9825 5.94625C8.29371 7.00096 7.61244 8.06058 6.93875 9.125C5.2425 11.7825 4.65625 12.3787 3.7125 12.3787C2.74125 12.3787 2.1625 11.5262 2.1625 10.0037C2.1625 6.75125 3.785 3.42375 5.72 3.42375C5.83375 3.42375 5.94625 3.43125 6.0575 3.44625V3.445Z" fill="#D0E3D8"/>
<path d="M33.9304 8.96847L29.0941 0H26.25V14.7369H28.5704V3.44219L32.8112 11.2633H34.9875L39.2282 3.44219V14.7369H41.5492V0H38.7667L33.9304 8.96847ZM51.4935 4.23688C50.7576 3.74212 49.8796 3.49474 48.8597 3.49474C47.8331 3.49474 46.9244 3.74037 46.1337 4.23161C45.343 4.72286 44.7252 5.40355 44.2803 6.2737C43.8353 7.14384 43.6128 8.14385 43.6129 9.27373C43.6129 10.39 43.8405 11.3794 44.2957 12.2421C44.7509 13.1048 45.3858 13.7803 46.2004 14.2686C47.0149 14.7561 47.9596 14.9999 49.0344 15C50.8141 15 52.3166 14.4246 53.5421 13.2737L52.3099 11.7263C51.8718 12.1543 51.403 12.4736 50.9034 12.6841C50.4039 12.8947 49.8083 12.9999 49.1168 12.9999C48.2544 12.9999 47.5408 12.7421 46.9759 12.2263C46.411 11.7106 46.0568 11.0035 45.9132 10.1052H53.7887V9.45264C53.7887 8.25258 53.5902 7.20699 53.1932 6.31587C52.7961 5.42474 52.2296 4.73174 51.4935 4.23688ZM45.9132 8.36849C46.0501 7.49132 46.377 6.79306 46.8938 6.2737C47.4106 5.75434 48.0523 5.49466 48.8191 5.49466C49.6063 5.49466 50.2429 5.74907 50.7289 6.25788C51.215 6.7667 51.4922 7.47024 51.5607 8.36849H45.9132ZM58.8408 0.536879H56.6026V3.75799H54.4664V5.70535H56.6021V10.9158C56.6021 13.6248 57.8103 14.9791 60.2266 14.9789C60.5617 14.9799 60.8963 14.9553 61.2277 14.9053C61.5175 14.8625 61.8039 14.7991 62.0851 14.7157V12.7894C61.8388 12.8316 61.6129 12.8649 61.4076 12.8895C61.2022 12.9141 60.9523 12.9264 60.6579 12.9263C59.9939 12.9263 59.5251 12.7508 59.2515 12.4C58.9779 12.0491 58.841 11.4631 58.8408 10.6422V5.70535H62.0854V3.75799H58.8405L58.8408 0.536879ZM71.5528 3.75799V5.16878C71.1761 4.64131 70.679 4.21662 70.105 3.93193C69.523 3.64078 68.8659 3.49515 68.1336 3.49505C67.1615 3.49505 66.3007 3.74067 65.5512 4.23192C64.8017 4.72317 64.2147 5.40014 63.7903 6.26285C63.3656 7.12607 63.1534 8.11905 63.1536 9.24179C63.1536 10.358 63.3624 11.3492 63.7799 12.2155C64.1973 13.0817 64.7707 13.7624 65.4998 14.2576C66.2288 14.7523 67.0656 14.9997 68.0102 14.9997C68.7764 14.9997 69.4609 14.8435 70.0638 14.5312C70.6667 14.2188 71.163 13.775 71.5527 13.1998V14.7366H73.75V3.75799H71.5528ZM71.5117 10.8947C71.272 11.5124 70.8819 12.0036 70.3412 12.3685C69.8005 12.7333 69.1844 12.9157 68.493 12.9157C67.5554 12.9157 66.8127 12.5859 66.2648 11.9263C65.717 11.2667 65.4432 10.372 65.4434 9.2421C65.4434 8.11936 65.7274 7.22813 66.2955 6.56841C66.8636 5.9087 67.6268 5.57895 68.585 5.57915C69.2628 5.57915 69.86 5.76002 70.3767 6.12177C70.8934 6.48351 71.2715 6.97651 71.5109 7.60077L71.5117 10.8947Z" fill="#D0E3D8"/>
</svg>
