<svg width="1036" height="670" fill="none" xmlns="http://www.w3.org/2000/svg"><g clip-path="url(#FORWARD_V__a)"><path d="m577.678 149.686 12.066-12.136L452.254 0 183.275 269.096l12.067 12.072 125.423-125.413 124.967 125.413 12.132-12.072-124.967-125.478 119.357-119.41 125.424 125.478Z" fill="#303E90"/><path d="M852.724 269.096 583.744 0 446.189 137.55l12.132 12.136L583.744 24.208l119.358 119.41-125.423 125.478 12.066 12.072 125.424-125.413 125.423 125.413 12.132-12.072ZM365.64 621.781v19.184h21.719v3.85H365.64v24.73h-4.24v-52.201h30.525v4.111l-26.285.326Zm39.524-4.113h4.109v52.201h-4.109v-52.201Zm62.42.002v52.201h-3.718l-31.568-44.241v44.11h-4.239v-52.201h3.522l31.763 44.371v-44.371l4.24.131Zm44.22 34.322h-21.327l-6.523 17.553h-4.565l19.567-52.201h3.652l19.958 52.201h-4.044l-6.718-17.553Zm-1.434-3.784-9.262-24.078-9.197 24.078h18.459Zm63.592-30.538v52.201h-3.653l-31.633-44.241v44.11h-3.848v-52.201h3.457l31.763 44.371v-44.371l3.914.131Zm14.739 26.033a26.107 26.107 0 0 1 7.642-18.456 26.084 26.084 0 0 1 18.447-7.644 22.42 22.42 0 0 1 16.045 6.525l-2.152 2.479a21.325 21.325 0 0 0-13.827-5.024 22.301 22.301 0 0 0-15.773 6.536 22.318 22.318 0 0 0 0 31.56 22.301 22.301 0 0 0 15.773 6.536 21.06 21.06 0 0 0 13.892-5.024l2.152 2.544a22.03 22.03 0 0 1-15.979 6.525 26.086 26.086 0 0 1-24.354-16.398 26.108 26.108 0 0 1-1.866-10.159Zm85.834 21.861v3.981H643.75v-52.201h30.524v4.111h-26.089v19.183h21.719v3.85h-21.915v21.076h26.546Z" fill="#589DD6"/><path d="M12.132 424.132v55.464h62.874v11.092H12.132v71.777H0V412.387h88.181v11.745h-76.05Zm101.942 63.623c0-41.957 31.633-76.083 71.028-76.083 39.395 0 71.289 34.126 71.289 76.083 0 41.956-31.96 76.083-71.289 76.083s-71.028-34.061-71.028-76.083Zm129.598 0c0-35.366-26.089-63.881-58.701-63.881-32.611 0-58.7 28.515-58.7 63.881s26.089 64.207 58.7 64.207c32.612 0 58.701-28.776 58.701-64.207Zm104.292 7.438h-36.981v67.339h-12.131V412.454h54.656a41.21 41.21 0 0 1 29.765 12.42 41.234 41.234 0 0 1 11.717 30.059 39.157 39.157 0 0 1-9.554 26.454 39.124 39.124 0 0 1-24.818 13.218l41.481 67.862h-13.044l-41.091-67.274Zm-36.981-10.832h42.264a28.562 28.562 0 0 0 28.077-18.004 28.581 28.581 0 0 0 1.991-11.62 30.746 30.746 0 0 0-9.17-22.586 30.726 30.726 0 0 0-22.724-8.8h-40.438v61.01Zm302.111-71.843-58.048 150.078h-10.109l-30.655-81.694-30.59 81.629h-10.305l-58.114-150.078h12.654l50.743 131.286 29.024-79.803-19.567-51.483h13.045l13.045 35.888 13.044-35.888h12.392l-19.566 51.483 29.35 79.803 50.417-131.286 13.24.065Zm106.574 99.313h-61.766l-19.567 50.7h-12.196l57.591-150.078h10.567l57.526 150.078h-12.849l-19.306-50.7Zm-4.239-11.093-26.611-69.493-26.676 69.493h53.287Zm119.424-5.545h-36.982v67.339h-11.935V412.454h54.656a41.21 41.21 0 0 1 29.765 12.42 41.234 41.234 0 0 1 11.717 30.059 39.159 39.159 0 0 1-9.459 26.436 39.13 39.13 0 0 1-24.718 13.302l41.482 67.861h-13.045l-41.481-67.339Zm-36.982-10.832h42.265a28.562 28.562 0 0 0 28.136-17.988 28.589 28.589 0 0 0 1.997-11.636 30.815 30.815 0 0 0-9.214-22.589 30.774 30.774 0 0 0-22.745-8.797h-40.439v61.01ZM1036 486.97a73.345 73.345 0 0 1-4.85 28.608 73.24 73.24 0 0 1-67.808 46.953h-40.895V412.453h40.112c43.051.065 73.441 31.973 73.441 74.517Zm-12.46-.522c0-37.258-25.043-61.793-64.372-61.793h-24.589v125.739h26.089a61.487 61.487 0 0 0 45.262-18.365 61.419 61.419 0 0 0 13.52-20.967 61.565 61.565 0 0 0 4.09-24.614Z" fill="#303E90"/></g><defs><clipPath id="FORWARD_V__a"><path fill="#fff" d="M0 0h1036v670H0z"/></clipPath></defs></svg>