<?xml version="1.0" standalone="no"?>
<!DOCTYPE svg PUBLIC "-//W3C//DTD SVG 20010904//EN"
 "http://www.w3.org/TR/2001/REC-SVG-20010904/DTD/svg10.dtd">
<svg version="1.0" xmlns="http://www.w3.org/2000/svg"
 width="1024.000000pt" height="324.000000pt" viewBox="0 0 1024.000000 324.000000"
 preserveAspectRatio="xMidYMid meet">

<g transform="translate(0.000000,324.000000) scale(0.100000,-0.100000)"
fill="#000000" stroke="none">
<path d="M3365 3189 c-14 -27 -25 -52 -25 -56 0 -9 141 -83 158 -83 6 0 23 22
37 49 l25 50 -86 44 -85 45 -24 -49z"/>
<path d="M3926 3074 c-14 -25 -26 -48 -26 -50 0 -4 156 -84 164 -84 5 0 57 92
54 95 -3 2 -141 74 -159 83 -4 2 -19 -18 -33 -44z"/>
<path d="M3242 2955 c-28 -58 -52 -107 -52 -109 0 -6 147 -86 157 -86 8 0 128
220 121 223 -1 1 -35 19 -74 40 -40 20 -78 37 -86 37 -7 0 -37 -47 -66 -105z"/>
<path d="M3806 2849 c-46 -89 -55 -113 -45 -121 44 -29 153 -78 159 -71 13 15
113 213 109 217 -6 4 -158 86 -161 86 -2 0 -29 -50 -62 -111z"/>
<path d="M3081 2648 c-24 -46 -60 -112 -79 -148 -19 -36 -66 -126 -105 -200
-38 -74 -76 -146 -84 -159 -8 -13 -11 -27 -6 -31 17 -18 144 -81 154 -78 6 2
23 26 38 53 60 110 291 552 291 558 0 6 -152 87 -162 87 -2 0 -23 -37 -47 -82z"/>
<path d="M4362 2708 c-11 -15 -42 -75 -42 -82 0 -5 154 -86 164 -86 4 0 56 89
56 95 0 4 -157 85 -163 85 -3 0 -9 -6 -15 -12z"/>
<path d="M3667 2583 l-45 -88 83 -42 c62 -32 85 -39 92 -30 12 16 83 153 83
161 0 5 -153 86 -163 86 -2 0 -24 -39 -50 -87z"/>
<path d="M2738 2606 c-256 -145 -435 -380 -515 -674 -23 -87 -26 -115 -26
-267 0 -152 2 -180 26 -268 33 -125 82 -238 144 -332 26 -41 50 -75 53 -75 3
0 24 37 47 83 23 45 70 134 103 197 48 90 254 481 301 572 8 15 -3 24 -71 58
-90 45 -96 47 -103 23 -3 -10 -30 -63 -59 -118 -30 -55 -89 -167 -132 -248
-43 -82 -82 -145 -86 -140 -14 14 -30 147 -30 240 1 199 67 392 184 538 18 22
67 105 110 185 44 80 94 173 113 208 18 34 30 62 25 62 -4 0 -42 -20 -84 -44z"/>
<path d="M4274 2543 c-20 -33 -214 -410 -214 -416 0 -7 161 -90 164 -85 15 21
226 423 226 431 0 4 -155 87 -163 87 -1 0 -7 -8 -13 -17z"/>
<path d="M3504 2272 c-37 -70 -86 -163 -109 -207 -24 -44 -89 -168 -145 -275
-56 -107 -129 -246 -162 -307 -32 -62 -56 -117 -53 -123 6 -10 141 -80 155
-80 4 0 20 24 35 53 46 87 334 635 390 742 92 174 115 219 115 230 0 6 -36 29
-80 52 l-79 42 -67 -127z"/>
<path d="M130 2331 c-59 -12 -88 -39 -107 -95 -16 -46 -18 -123 -20 -816 -3
-609 -1 -770 10 -790 12 -24 16 -25 138 -28 99 -2 129 0 138 12 9 10 11 185
11 680 0 610 1 667 16 673 29 11 46 -11 81 -107 19 -52 50 -135 68 -185 347
-950 350 -958 408 -1016 43 -44 96 -59 209 -59 190 0 228 38 341 345 120 325
162 438 239 650 137 376 136 375 164 375 l24 0 0 -669 c0 -595 2 -671 16 -685
21 -22 255 -23 273 -2 9 10 11 220 9 807 -3 771 -4 795 -23 833 -34 68 -57 78
-193 84 -65 2 -154 1 -196 -3 -86 -8 -123 -30 -155 -94 -20 -38 -179 -482
-367 -1021 -100 -285 -95 -275 -133 -275 l-33 0 -159 450 c-325 922 -312 891
-372 922 -25 13 -66 17 -192 19 -88 2 -176 0 -195 -5z"/>
<path d="M4699 2330 c-114 -15 -203 -89 -251 -208 -20 -51 -22 -79 -26 -258
-4 -214 4 -279 49 -370 28 -60 95 -121 159 -146 53 -22 70 -23 507 -28 437 -5
453 -6 467 -25 23 -30 28 -72 24 -190 -3 -103 -4 -108 -31 -131 l-28 -24 -559
0 c-494 0 -560 -2 -574 -16 -13 -13 -16 -41 -16 -155 0 -78 5 -149 10 -160 10
-18 28 -19 613 -19 626 0 654 2 733 43 82 42 146 156 166 292 16 110 4 377
-21 454 -38 121 -106 194 -210 225 -47 14 -118 16 -477 16 -280 0 -431 4 -447
11 -12 6 -29 20 -37 32 -18 29 -25 190 -11 244 21 75 0 73 599 73 397 0 531 3
540 12 8 8 12 59 12 165 0 140 -2 153 -19 163 -23 12 -1080 12 -1172 0z"/>
<path d="M6863 2331 c-59 -15 -102 -60 -150 -156 -82 -165 -684 -1536 -681
-1552 3 -16 18 -18 160 -21 186 -3 156 -26 253 196 l67 152 476 -2 475 -3 75
-165 c41 -91 79 -168 86 -172 6 -5 78 -7 161 -5 129 2 150 4 153 18 2 13 -125
310 -261 609 -101 222 -192 423 -297 660 -147 331 -176 381 -237 417 -40 23
-58 27 -147 29 -55 2 -115 0 -133 -5z m257 -608 c168 -382 210 -477 210 -480
0 -2 -155 -3 -344 -3 l-344 0 67 158 c213 496 253 582 275 582 18 0 38 -37
136 -257z"/>
<path d="M8118 2330 c-17 -10 -18 -62 -18 -858 0 -646 3 -851 12 -860 15 -15
255 -17 278 -2 13 8 15 115 15 859 0 467 -4 853 -8 858 -13 12 -259 15 -279 3z"/>
<path d="M8690 2320 c-20 -20 -20 -30 -18 -861 3 -734 5 -841 18 -849 23 -15
263 -13 278 2 9 9 12 104 12 365 l0 353 193 0 c105 0 208 -5 228 -10 19 -5 49
-23 65 -39 17 -17 106 -151 199 -298 93 -147 186 -294 207 -325 l39 -58 154 0
c215 0 213 -5 71 213 -40 62 -110 171 -156 242 -189 296 -214 332 -263 382
l-50 52 40 53 c64 84 463 720 471 750 10 41 -13 48 -152 48 -72 0 -141 -3
-153 -6 -15 -4 -54 -59 -126 -177 -57 -95 -141 -232 -185 -305 -147 -238 -126
-226 -387 -227 l-190 0 -3 345 c-2 310 -4 346 -19 358 -11 8 -56 12 -135 12
-105 0 -120 -2 -138 -20z"/>
<path d="M3993 2008 c-4 -7 -33 -62 -64 -123 l-57 -109 81 -44 c95 -51 83 -57
154 83 24 50 49 94 54 100 17 17 9 25 -71 65 -90 45 -86 44 -97 28z"/>
<path d="M4205 1513 c-77 -157 -159 -318 -182 -358 -79 -136 -230 -272 -375
-340 -47 -22 -78 -31 -78 -22 0 2 28 57 63 123 35 65 94 178 132 249 37 72 92
175 121 231 30 56 54 104 54 107 0 6 -148 87 -159 87 -5 0 -97 -170 -206 -377
-109 -208 -229 -435 -267 -505 -37 -70 -68 -132 -68 -138 0 -15 136 -12 231 5
229 43 418 142 580 304 185 185 284 402 315 690 7 67 -3 231 -14 231 -4 -1
-70 -130 -147 -287z"/>
<path d="M2954 1228 c-9 -18 -29 -55 -44 -83 -144 -267 -211 -407 -202 -418
13 -15 150 -83 155 -76 5 5 65 117 186 348 70 133 89 176 79 183 -22 14 -147
78 -152 78 -3 0 -13 -15 -22 -32z"/>
<path d="M78 364 c-50 -21 -63 -57 -63 -174 0 -173 20 -190 234 -190 l141 0 0
40 0 40 -128 0 c-167 0 -172 3 -172 106 0 110 6 114 171 114 l130 0 -3 38 -3
37 -135 2 c-103 2 -144 -1 -172 -13z"/>
<path d="M1200 374 c-74 -27 -90 -60 -90 -183 0 -169 25 -191 217 -191 189 0
213 20 213 187 0 173 -14 187 -200 190 -69 1 -132 0 -140 -3z m252 -82 c8 -8
14 -46 16 -97 4 -75 2 -85 -18 -105 -20 -20 -30 -21 -131 -18 -84 2 -112 7
-119 18 -5 8 -10 54 -10 102 0 115 6 120 147 116 67 -2 107 -7 115 -16z"/>
<path d="M2288 369 c-16 -9 -18 -29 -18 -189 l0 -180 35 0 35 0 0 144 c0 80 3
147 8 150 4 2 46 -50 92 -117 127 -181 123 -177 181 -177 38 0 51 4 59 20 6
12 9 83 8 187 l-3 168 -35 0 -35 0 -5 -149 -5 -149 -103 146 c-57 80 -110 148
-118 151 -24 9 -77 7 -96 -5z"/>
<path d="M3463 370 c-32 -13 -43 -41 -43 -109 0 -52 3 -62 26 -80 24 -19 40
-21 144 -21 l118 0 5 -27 c11 -59 0 -63 -153 -63 l-140 0 0 -35 0 -35 160 0
c157 0 161 1 185 25 21 20 25 34 25 84 0 49 -4 65 -24 88 -24 27 -28 28 -148
33 -119 5 -123 6 -126 28 -7 46 10 52 155 52 l134 0 -3 33 -3 32 -145 2 c-80
1 -155 -2 -167 -7z"/>
<path d="M4520 240 c0 -223 14 -240 205 -240 201 0 215 16 215 240 l0 141 -37
-3 -38 -3 -3 -135 c-2 -112 -5 -137 -19 -147 -11 -8 -52 -13 -113 -13 -62 0
-102 5 -113 13 -19 14 -26 64 -26 195 l-1 92 -35 0 -35 0 0 -140z"/>
<path d="M5677 374 c-12 -12 -7 -266 6 -304 20 -57 58 -70 215 -70 l132 0 0
40 0 40 -122 0 c-68 0 -130 5 -138 10 -12 7 -16 39 -20 147 l-5 138 -30 3
c-17 2 -34 0 -38 -4z"/>
<path d="M6720 340 l0 -40 80 0 79 0 3 -147 3 -148 38 -3 37 -3 0 150 0 151
86 0 85 0 -3 38 -3 37 -202 3 -203 2 0 -40z"/>
<path d="M7844 367 c-2 -7 -3 -91 -2 -187 l3 -175 38 -3 37 -3 0 190 0 191
-35 0 c-20 0 -38 -6 -41 -13z"/>
<path d="M8670 370 c-12 -7 -16 -43 -18 -190 l-3 -180 40 0 40 0 3 152 3 152
99 -139 c54 -77 106 -146 114 -152 20 -16 94 -17 110 -1 8 8 12 65 12 190 l0
178 -35 0 -35 0 0 -150 c0 -82 -3 -150 -7 -150 -5 0 -39 46 -78 102 -128 186
-139 198 -188 198 -23 0 -49 -5 -57 -10z"/>
<path d="M9868 364 c-50 -21 -63 -57 -63 -174 0 -176 9 -184 215 -188 80 -1
151 1 158 6 30 20 45 189 18 211 -9 8 -50 11 -117 9 l-104 -3 -3 -32 -3 -33
81 0 81 0 -3 -43 -3 -42 -99 -3 c-137 -4 -146 3 -146 108 0 118 3 120 180 120
152 0 159 3 146 55 l-6 25 -148 -1 c-108 0 -157 -4 -184 -15z"/>
</g>
</svg>
