<svg xmlns="http://www.w3.org/2000/svg" viewBox="0 0 2350.09 738.17"><g id="Capa_2" data-name="Capa 2"><g id="Layer_1" data-name="Layer 1"><path d="M200.56,35.32V0H0V284.19H40.6V169.29H183.1V134.38H40.6V35.32Z"/><path d="M426.52,0V160q0,46.28-20.7,68.81T346.14,251.3q-80,0-80-91.34V0h-40.6V161.58q0,60.9,31.67,93.38t88.5,32.48q56.83,0,88.51-32.28t31.67-93.58V0Z"/><path d="M490.91,0V35.32h97.44V284.19h40.19V35.32H726V0Z"/><path d="M951.94,0V160q0,46.28-20.7,68.81T871.56,251.3q-80,0-80-91.34V0H751V161.58q0,60.9,31.66,93.38t88.51,32.48q56.83,0,88.5-32.28t31.67-93.58V0Z"/><path d="M1142.58,188.78q30-10.54,46.29-33.7t16.24-56q0-46.29-31.67-72.67T1086.56,0h-70.24V35.32h69q38.57,0,58.87,16.44t20.3,47.3q0,30.85-20.3,47.5t-58.87,16.64h-69v34.51h70.24q6.48,0,17.86-.81l61.31,87.29H1210Z"/><path d="M1403.87,0h-40.19L1235,284.19h41.81l31.27-71.05h151l31.26,71.05H1533Zm-81.6,180.66,61.3-139.25,61.3,139.25Z"/><path d="M197.71,477.12Q166,450.73,110.83,450.73H0V734.92H40.6V648.85h70.23q55.21,0,86.88-26.39t31.67-72.67Q229.38,503.5,197.71,477.12Zm-29.23,120q-20.31,16.45-58.87,16.45h-69V486.05h69q38.56,0,58.87,16.44t20.3,47.3Q188.78,580.65,168.48,597.08Z"/><path d="M379,639.51q30-10.56,46.28-33.7t16.24-56q0-46.29-31.67-72.67T323,450.73h-68.6v35.32h67.38q38.57,0,58.87,16.44t20.3,47.3q0,30.86-20.3,47.5t-58.87,16.64H254.38v34.51H323q6.5,0,17.86-.81l61.31,87.29H446.4Z"/><path d="M754,518.32a138.55,138.55,0,0,0-54-52q-34.51-18.89-77.14-18.88-43,0-77.55,18.88a139.59,139.59,0,0,0-54.2,52.17q-19.69,33.29-19.69,74.29t19.69,74.3a139.66,139.66,0,0,0,54.2,52.17q34.51,18.87,77.55,18.88,42.63,0,77.14-18.88a138.57,138.57,0,0,0,54-52q19.49-33.09,19.49-74.5T754,518.32ZM718.45,648.64a104.25,104.25,0,0,1-39.38,39.18Q654.09,702,622.84,702T566.2,687.82a103.28,103.28,0,0,1-39.78-39.18Q512,623.68,512,592.82T526.42,537a103.35,103.35,0,0,1,39.78-39.18q25.37-14.2,56.64-14.21t56.23,14.21A104.32,104.32,0,0,1,718.45,537q14.4,25,14.41,55.82T718.45,648.64Z"/><path d="M1100.52,450.73h-33.29L950.3,650.47,831.75,450.73H798.46V734.92h39V529.08L940.15,700.41h18.68l102.71-172.55.41,207.06h39Z"/><path d="M1408.49,518.32a138.55,138.55,0,0,0-54-52q-34.51-18.89-77.14-18.88-43,0-77.55,18.88a139.59,139.59,0,0,0-54.2,52.17q-19.69,33.29-19.69,74.29t19.69,74.3a139.66,139.66,0,0,0,54.2,52.17q34.51,18.87,77.55,18.88,42.63,0,77.14-18.88a138.57,138.57,0,0,0,54-52q19.48-33.09,19.49-74.5T1408.49,518.32ZM1373,648.64a104.25,104.25,0,0,1-39.38,39.18q-25,14.22-56.23,14.21t-56.64-14.21a103.28,103.28,0,0,1-39.78-39.18q-14.42-25-14.42-55.82T1180.94,537a103.35,103.35,0,0,1,39.78-39.18q25.37-14.2,56.64-14.21t56.23,14.21A104.32,104.32,0,0,1,1373,537q14.4,25,14.41,55.82T1373,648.64Z"/><path d="M1453,450.73v35.32h97.44V734.92h40.19V486.05h97.44V450.73Z"/><path d="M1713.05,450.73V734.92h40.59V450.73Z"/><path d="M2061.21,518.32a138.57,138.57,0,0,0-54-52q-34.51-18.89-77.14-18.88-43,0-77.54,18.88a139.52,139.52,0,0,0-54.2,52.17q-19.69,33.29-19.69,74.29t19.69,74.3a139.59,139.59,0,0,0,54.2,52.17q34.5,18.87,77.54,18.88,42.63,0,77.14-18.88a138.6,138.6,0,0,0,54-52q19.48-33.09,19.48-74.5T2061.21,518.32Zm-35.53,130.32a104.18,104.18,0,0,1-39.38,39.18q-25,14.22-56.23,14.21t-56.63-14.21a103.38,103.38,0,0,1-39.79-39.18q-14.42-25-14.41-55.82T1833.65,537a103.45,103.45,0,0,1,39.79-39.18q25.36-14.2,56.63-14.21t56.23,14.21A104.25,104.25,0,0,1,2025.68,537q14.41,25,14.42,55.82T2025.68,648.64Z"/><path d="M2309.49,450.73V662.65L2139,450.73h-33.29V734.92h40.6V523L2316.8,734.92h33.29V450.73Z"/></g></g></svg>