<?xml version="1.0" standalone="no"?>
<!DOCTYPE svg PUBLIC "-//W3C//DTD SVG 20010904//EN"
 "http://www.w3.org/TR/2001/REC-SVG-20010904/DTD/svg10.dtd">
<svg version="1.0" xmlns="http://www.w3.org/2000/svg"
 width="1986.000000pt" height="1446.000000pt" viewBox="0 0 1986.000000 1446.000000"
 preserveAspectRatio="xMidYMid meet">
<metadata>
Created by potrace 1.16, written by Peter Selinger 2001-2019
</metadata>
<g transform="translate(0.000000,1446.000000) scale(0.100000,-0.100000)"
fill="#000000" stroke="none">
<path d="M11660 10660 c-85 -5 -168 -11 -185 -15 -16 -4 -73 -15 -125 -25
-385 -76 -729 -215 -1040 -420 -441 -291 -819 -732 -1052 -1228 -72 -154 -85
-184 -93 -212 -4 -14 -11 -29 -15 -35 -9 -13 -93 -260 -115 -340 -52 -192 -76
-284 -81 -315 -2 -19 -11 -64 -19 -100 -40 -177 -55 -342 -55 -595 0 -280 18
-441 65 -600 15 -49 27 -96 28 -102 0 -7 4 -13 8 -13 4 0 10 -12 14 -27 3 -15
17 -52 31 -81 13 -29 24 -54 24 -56 0 -9 86 -157 128 -219 102 -154 269 -317
432 -423 41 -27 78 -53 81 -57 3 -5 9 -8 13 -8 7 2 69 -29 76 -38 3 -3 19 -11
35 -18 17 -6 68 -27 115 -46 95 -40 236 -84 293 -94 20 -3 37 -9 37 -12 0 -4
8 -7 18 -8 9 0 96 -13 192 -28 157 -25 202 -27 435 -28 215 0 286 4 410 22
152 22 344 61 423 87 24 8 47 12 52 9 5 -3 10 -2 12 2 1 5 35 19 73 32 232 78
510 214 653 319 17 14 32 21 32 16 0 -4 6 -1 13 7 6 9 53 47 102 85 97 74 315
289 380 375 58 77 140 204 155 239 7 16 9 37 6 46 -6 15 -9 15 -30 -5 -12 -12
-49 -61 -81 -109 -235 -350 -559 -615 -980 -803 -48 -22 -194 -67 -235 -74
-25 -4 -52 -11 -60 -15 -30 -16 -208 -31 -360 -31 -217 -1 -302 12 -490 72
-246 79 -425 231 -540 458 -66 131 -117 325 -132 501 -11 133 -4 517 12 630
31 226 107 626 181 953 11 48 22 108 26 132 3 25 9 45 13 45 3 0 6 8 6 18 -1
27 27 172 33 172 4 0 7 12 8 28 0 15 10 70 22 122 23 106 58 274 90 425 11 55
32 154 46 220 14 66 31 147 37 180 7 33 14 62 17 65 4 3 7 14 7 25 2 23 31
165 68 335 74 338 75 341 129 367 46 22 199 62 343 88 79 14 254 22 367 17 48
-3 230 -46 282 -67 441 -181 741 -648 896 -1395 33 -163 79 -444 78 -482 -1
-32 19 -167 26 -179 4 -5 10 -9 14 -9 10 0 360 470 724 971 37 52 94 130 126
174 105 144 201 288 201 300 0 24 -267 214 -435 310 -27 15 -53 33 -57 39 -4
6 -8 7 -8 3 0 -9 -93 43 -98 55 -2 4 -9 8 -15 8 -7 0 -39 13 -72 29 -226 109
-462 193 -710 253 -124 30 -332 67 -410 72 -138 11 -443 13 -595 6z"/>
<path d="M6655 10605 c-5 -2 -79 -5 -164 -7 -103 -2 -156 -7 -158 -14 -2 -6 4
-14 13 -18 9 -3 136 -9 283 -12 146 -3 270 -9 275 -14 10 -10 -13 -145 -89
-500 -36 -167 -61 -285 -85 -400 -27 -132 -67 -317 -91 -430 -11 -52 -32 -149
-46 -215 -14 -66 -33 -158 -43 -205 -10 -47 -27 -128 -38 -180 -11 -52 -32
-151 -47 -220 -29 -132 -50 -230 -84 -395 -11 -55 -32 -154 -46 -220 -15 -66
-31 -142 -36 -170 -5 -27 -12 -57 -16 -65 -3 -8 -6 -26 -8 -40 -1 -14 -14 -81
-29 -150 -15 -69 -34 -156 -42 -195 -8 -38 -20 -99 -28 -135 -8 -36 -25 -110
-36 -165 -12 -55 -24 -107 -27 -115 -4 -8 -5 -21 -4 -28 1 -6 -3 -29 -9 -50
-6 -20 -20 -82 -31 -137 -12 -55 -29 -138 -39 -185 -10 -47 -26 -125 -36 -175
-10 -49 -21 -92 -24 -95 -3 -3 -6 -16 -7 -30 -1 -14 -11 -68 -22 -120 -11 -52
-29 -138 -40 -190 -11 -52 -32 -149 -46 -215 -14 -66 -33 -158 -42 -205 -9
-47 -20 -87 -25 -88 -4 -2 -6 -7 -4 -10 4 -7 -16 -110 -66 -342 -11 -52 -28
-133 -38 -180 -10 -47 -30 -141 -45 -210 -15 -69 -32 -153 -38 -187 -6 -35
-14 -63 -19 -63 -5 0 -6 -5 -2 -11 3 -6 2 -28 -5 -48 -20 -68 -64 -312 -56
-319 11 -11 42 34 65 96 11 31 27 71 35 89 8 17 15 34 15 37 0 9 51 120 105
227 85 170 244 416 260 401 4 -4 5 -2 3 4 -9 32 239 288 385 397 176 132 413
263 617 341 52 20 104 41 115 46 11 4 67 23 125 41 58 18 112 39 121 46 17 14
39 88 64 208 7 39 26 126 40 195 38 179 61 288 91 430 14 69 35 166 45 215 11
50 28 131 39 180 10 50 31 146 45 215 15 69 35 163 45 210 10 47 27 128 38
180 12 52 33 151 47 220 15 69 35 163 45 210 10 47 30 141 45 210 15 69 32
152 38 185 5 33 13 62 16 65 3 3 7 16 8 30 3 40 36 205 42 210 3 3 8 19 9 35
4 35 27 144 102 495 20 89 59 273 91 425 10 50 30 144 44 210 14 66 35 165 46
220 33 158 55 261 84 395 15 69 32 149 38 178 l10 52 141 1 c78 0 152 2 166 4
14 2 81 6 148 9 134 6 167 15 112 29 -34 9 -2325 21 -2345 12z"/>
<path d="M5380 3068 l0 -141 3763 7 c2069 4 3984 7 4255 6 l492 0 0 128 0 129
-1817 6 c-999 4 -2914 7 -4255 7 l-2438 0 0 -142z"/>
</g>
</svg>
