<svg width="210" height="69" viewBox="0 0 210 69" fill="none" xmlns="http://www.w3.org/2000/svg">
<path d="M69.0408 64.8376V58.0181C69.0408 55.4142 70.6763 54.1123 73.9473 54.1123C77.2182 54.1123 78.8537 55.4142 78.8537 58.0181H76.888C76.888 56.7162 75.9064 56.0652 73.9433 56.0652C71.9802 56.0652 70.9986 56.7162 70.9986 58.0181V64.8376C70.9986 66.1395 71.9802 66.7905 73.9433 66.7905C75.9064 66.7905 76.888 66.1395 76.888 64.8376H78.8537C78.8537 67.4415 77.2182 68.7434 73.9473 68.7434C70.6763 68.7434 69.0408 67.4415 69.0408 64.8376Z" fill="#99C8AD"/>
<path d="M84.4601 58.0181C84.4601 55.4142 86.0956 54.1123 89.3666 54.1123C92.6376 54.1123 94.273 55.4142 94.273 58.0181V64.8376C94.273 67.4415 92.6376 68.7434 89.3666 68.7434C86.0956 68.7434 84.4601 67.4415 84.4601 64.8376V58.0181ZM86.4258 64.8376C86.4258 66.1395 87.4074 66.7905 89.3705 66.7905C91.3336 66.7905 92.3152 66.1395 92.3152 64.8376V58.0181C92.3152 56.7162 91.3336 56.0652 89.3705 56.0652C87.4074 56.0652 86.4258 56.7162 86.4258 58.0181V64.8376Z" fill="#99C8AD"/>
<path d="M101.825 68.7434H99.8596V54.1162H101.825L107.723 64.8376V54.1162H109.688V68.7434H107.723L101.825 58.022V68.7434Z" fill="#99C8AD"/>
<path d="M120.205 56.0652C118.242 56.0652 117.26 56.7162 117.26 58.0181C117.26 59.32 118.242 59.971 120.205 59.971C123.476 59.971 125.112 61.2729 125.112 63.8768V64.8376C125.112 67.4415 123.476 68.7434 120.205 68.7434C116.934 68.7434 115.299 67.4415 115.299 64.8376H117.264C117.264 66.1395 118.246 66.7905 120.209 66.7905C122.172 66.7905 123.152 66.1395 123.15 64.8376V63.8651C123.15 62.5631 122.17 61.9122 120.209 61.9122C116.938 61.9122 115.303 60.937 115.303 58.9867V58.0142C115.303 55.4103 116.938 54.1084 120.209 54.1084C123.48 54.1084 125.115 55.4103 125.115 58.0142H123.15C123.147 56.7175 122.166 56.0678 120.205 56.0652Z" fill="#99C8AD"/>
<path d="M132.68 54.1162V64.8376C132.68 66.1395 133.661 66.7905 135.624 66.7905C137.587 66.7905 138.568 66.1395 138.565 64.8376V54.1162H140.531V64.8376C140.531 67.4414 138.897 68.7434 135.628 68.7434C132.36 68.7434 130.724 67.4414 130.722 64.8376V54.1162H132.68Z" fill="#99C8AD"/>
<path d="M147.71 54.1162H149.675V66.7905H157.538V68.7434H147.71V54.1162Z" fill="#99C8AD"/>
<path d="M161.556 54.1162H171.365V56.0691H167.434V68.7434H165.468V56.0652H161.537L161.556 54.1162Z" fill="#99C8AD"/>
<path d="M178.937 54.1162V68.7434H176.972V54.1162H178.937Z" fill="#99C8AD"/>
<path d="M186.505 68.7434H184.54V54.1162H186.505L192.403 64.8376V54.1162H194.368V68.7434H192.403L186.505 58.022V68.7434Z" fill="#99C8AD"/>
<path d="M199.963 64.8376V58.0181C199.963 55.4142 201.598 54.1123 204.869 54.1123C208.14 54.1123 209.776 55.4142 209.776 58.0181H207.81C207.81 56.7162 206.83 56.0652 204.869 56.0652C202.909 56.0652 201.927 56.7162 201.925 58.0181V64.8376C201.925 66.1395 202.906 66.7905 204.869 66.7905C206.832 66.7905 207.813 66.1395 207.81 64.8376V63.8651H205.844V61.9122H209.776V64.8376C209.776 67.4415 208.14 68.7434 204.869 68.7434C201.598 68.7434 199.963 67.4415 199.963 64.8376Z" fill="#99C8AD"/>
<path d="M84.1101 5.8992C78.1736 5.8992 75.2053 7.86511 75.2053 11.7969C75.2053 15.7288 78.1736 17.6947 84.1101 17.6947C94.0017 17.6947 98.9488 21.6265 98.9515 29.4901V32.439C98.9515 40.3027 94.0043 44.2345 84.1101 44.2345C74.2159 44.2345 69.2688 40.3027 69.2688 32.439H75.2053C75.2053 36.3734 78.1736 38.3394 84.1101 38.3368C90.0467 38.3342 93.0149 36.3682 93.0149 32.439V29.4901C93.0149 25.5583 90.0467 23.5924 84.1101 23.5924C74.2159 23.5924 69.2688 20.6435 69.2688 14.7458V11.7969C69.2688 3.93329 74.2159 0.00146484 84.1101 0.00146484C94.0043 0.00146484 98.9515 3.93329 98.9515 11.7969H93.0149C93.0149 7.86511 90.0467 5.8992 84.1101 5.8992Z" fill="#555555"/>
<path d="M106.284 0.00146484H113.706L121.125 14.7458L128.457 0.00146484H135.966L124.093 23.5924V44.2345H118.157V23.5924L106.284 0.00146484Z" fill="#555555"/>
<path d="M143.302 0.00146484H149.239V17.6947L165.594 0.00146484H172.985L158.144 17.6947L172.985 44.254H164.08L153.328 22.655L149.239 27.342V44.2384H143.302V0.00146484Z" fill="#555555"/>
<path d="M180.317 0.00146484H210V8.84807L186.254 38.3368H210V44.2345H180.317V35.3879L204.064 5.8992H180.317V0.00146484Z" fill="#555555"/>
<path d="M45.4637 23.866V22.585C45.4648 18.1181 44.1323 13.7513 41.6348 10.037C39.1372 6.32273 35.5869 3.42782 31.4329 1.71855C27.2789 0.0092696 22.7079 -0.437563 18.2982 0.434576C13.8886 1.30672 9.83837 3.45864 6.66002 6.6181C4.5417 8.70934 2.86226 11.1975 1.71904 13.9383C0.575815 16.6791 -0.00845606 19.6181 9.24658e-05 22.585V45.8166C7.906e-05 50.2829 1.33313 54.6489 3.83068 58.3626C6.32824 62.0763 9.87814 64.9709 14.0315 66.6803C18.1849 68.3897 22.7552 68.8373 27.1646 67.9664C31.574 67.0954 35.6245 64.9451 38.8038 61.7873C40.9217 59.695 42.6008 57.2061 43.744 54.4647C44.8872 51.7233 45.4717 48.7839 45.4637 45.8166V44.5277H37.1526V45.8088C37.1526 49.6084 35.6332 53.2523 32.9288 55.9391C30.2244 58.6258 26.5565 60.1352 22.7319 60.1352C18.9073 60.1352 15.2393 58.6258 12.5349 55.9391C9.83055 53.2523 8.31124 49.6084 8.31124 45.8088V22.585C8.31124 18.7853 9.83055 15.1414 12.5349 12.4546C15.2393 9.76791 18.9073 8.25853 22.7319 8.25853C26.5565 8.25853 30.2244 9.76791 32.9288 12.4546C35.6332 15.1414 37.1526 18.7853 37.1526 22.585V23.866H45.4637Z" fill="#99C8AD"/>
<path d="M45.4637 44.5276H37.1525C37.1525 44.5276 37.1525 44.2894 37.1525 44.0863C37.1525 44.0043 37.1525 43.9222 37.1525 43.8363C37.1525 43.6684 37.129 43.5043 37.1132 43.3481C37.1132 43.2856 37.1132 43.227 37.1132 43.1645V43.1372V43.0278V42.9653C37.1132 42.8794 37.1132 42.7974 37.0818 42.7154V42.6607C37.0818 42.5669 37.0543 42.4732 37.0385 42.3795V42.3521V42.2974L36.9796 41.985C36.956 41.8639 36.9324 41.7389 36.9049 41.6178C36.8773 41.4968 36.8537 41.3952 36.8262 41.2819C36.7279 40.8914 36.61 40.5008 36.4763 40.1102C36.4763 40.0633 36.4409 40.0126 36.4213 39.9657L36.2994 39.6337C36.2601 39.54 36.2286 39.4501 36.1893 39.3564C36.15 39.2626 36.1343 39.2236 36.1028 39.1572C36.1028 39.1103 36.0635 39.0634 36.0439 39.0166L35.9692 38.8486C35.922 38.7432 35.8748 38.6455 35.8276 38.5518C35.749 38.3877 35.6664 38.2237 35.5839 38.0675L35.4384 37.798C35.2851 37.5324 35.1278 37.2707 34.9706 37.0168L34.6914 36.7161C34.5499 36.513 34.4202 36.3255 34.2983 36.1497C34.2315 36.0599 34.1646 35.9662 34.0899 35.8802C33.2261 34.7847 32.2048 33.8214 31.0588 33.0212C30.9801 32.9626 30.8976 32.904 30.8111 32.8493C30.4034 32.5667 29.9808 32.306 29.5451 32.0682L29.2974 31.9354C28.6706 31.6173 28.0216 31.3445 27.3553 31.1191L27.2098 31.0722C27.029 31.0136 26.8442 30.9589 26.6516 30.9043L26.3803 30.8574L26.1247 30.791L25.6726 30.6933C23.7453 30.3008 21.7578 30.3008 19.8305 30.6933L19.339 30.7988L19.1346 30.8535C19.0206 30.8847 18.9066 30.9121 18.7925 30.9472C18.6785 30.9824 18.5409 31.0175 18.3994 31.0644C18.2579 31.1113 18.1124 31.1542 17.9473 31.2128L17.621 31.33L17.2946 31.4628L17.1295 31.5292L16.8111 31.6659C16.5201 31.7987 16.2371 31.9354 15.9737 32.0799C15.895 32.119 15.8125 32.1619 15.7339 32.2088C15.5569 32.3064 15.4115 32.3924 15.2817 32.4705C15.152 32.5486 15.0773 32.5955 14.9829 32.658C14.8886 32.7204 14.7903 32.779 14.692 32.8454C14.4954 32.9782 14.2989 33.111 14.1259 33.236L13.9922 33.3376C13.8939 33.4079 13.8074 33.4782 13.717 33.5485C13.6266 33.6188 13.4143 33.7945 13.2649 33.9391C13.1155 34.0836 12.9543 34.2164 12.8049 34.357C12.2175 34.9109 11.6782 35.5133 11.193 36.1575L10.9964 36.427C10.8667 36.6067 10.7369 36.8176 10.6033 36.9973C10.5404 37.0949 10.4775 37.1926 10.4185 37.2902C10.273 37.5285 10.1276 37.7823 9.98603 38.044L9.8327 38.3448C9.74228 38.5244 9.66758 38.6846 9.59681 38.8408L9.46708 39.1338C9.3452 39.4267 9.22725 39.7235 9.12504 40.0204L9.10145 40.0907L8.9835 40.4461L8.91274 40.6726L8.79479 41.1062C8.7712 41.1921 8.74761 41.278 8.72796 41.364C8.72796 41.4343 8.69651 41.5007 8.68471 41.5671C8.67292 41.6335 8.6336 41.7975 8.61001 41.9108C8.53925 42.3013 8.48027 42.6724 8.44096 43.0434C8.43053 43.1042 8.42396 43.1655 8.4213 43.227C8.4213 43.3793 8.39378 43.5473 8.38592 43.7152C8.37806 43.8832 8.36233 44.1527 8.3584 44.3753C8.3584 44.4417 8.3584 27.1235 8.3584 27.1235C12.7215 23.5677 18.2598 21.7511 23.8963 22.0269C29.5327 22.3026 34.8645 24.6511 38.8549 28.6155C39.1144 28.8733 39.3778 29.1467 39.6412 29.4318C39.8299 29.6349 40.0343 29.8497 40.1955 30.0606C40.4275 30.334 40.6633 30.6269 40.8953 30.9277C41.0526 31.1347 41.1941 31.3183 41.3238 31.5097C41.8877 32.2935 42.3998 33.1129 42.8571 33.9625C42.9318 34.0992 43.0104 34.2515 43.1009 34.4273C43.2385 34.7007 43.3721 34.9702 43.494 35.2397C43.5569 35.3764 43.6198 35.5209 43.6906 35.681C44.2006 36.8697 44.6083 38.0993 44.9094 39.3564L45.0155 39.8368C45.161 40.5125 45.275 41.2077 45.3575 41.899C45.3575 41.9459 45.3575 41.9928 45.3575 42.0397V42.1842C45.3575 42.3599 45.3969 42.5396 45.4126 42.7349C45.4126 42.7739 45.4126 42.8169 45.4126 42.8599C45.4401 43.1684 45.4598 43.477 45.4715 43.7894C45.4558 44.0277 45.4637 44.2816 45.4637 44.5276Z" fill="#555555"/>
</svg>
